<svg width="44" height="38" viewBox="0 0 44 38" fill="none" xmlns="http://www.w3.org/2000/svg">
<path d="M4.02813 0.25C1.87188 0.25 0.125 2 0.125 4.15625V33.8281C0.125 35.9844 1.875 37.7344 4.02813 37.7344H5.59063C7.74688 37.7344 9.49375 35.9844 9.49375 33.8281V4.15313C9.49375 1.99688 7.74375 0.25 5.5875 0.25H4.03125H4.02813ZM16.5187 0.25C14.3625 0.25 12.6125 2 12.6125 4.15625V33.8281C12.6125 35.9844 14.3625 37.7344 16.5187 37.7344H18.0812C20.2344 37.7344 21.9813 35.9844 21.9813 33.8281V4.15313C21.9813 2 20.2344 0.25 18.0781 0.25H16.5156H16.5187ZM34.4125 8.92812C34.0379 7.99656 33.3186 7.2452 32.4043 6.83024C31.49 6.41528 30.4509 6.36863 29.5031 6.7L27.6844 7.3375C27.1867 7.51222 26.7296 7.78591 26.3405 8.14209C25.9515 8.49826 25.6386 8.92953 25.4208 9.40989C25.203 9.89026 25.0846 10.4098 25.073 10.9371C25.0614 11.4644 25.1567 11.9886 25.3531 12.4781L34.5312 35.3031C35.3094 37.2406 37.4688 38.2188 39.4406 37.5312L41.2594 36.8937C41.7574 36.7191 42.2149 36.4453 42.6042 36.0889C42.9935 35.7325 43.3065 35.3009 43.5244 34.8202C43.7423 34.3394 43.8605 33.8195 43.8719 33.2919C43.8833 32.7642 43.7876 32.2397 43.5906 31.75L34.4125 8.92812Z" fill="#141414"/>
</svg>
