<svg width="98" height="98" viewBox="0 0 98 98" fill="none" xmlns="http://www.w3.org/2000/svg">
<path d="M98 48.9985C98 21.9734 76.0181 0 49.0015 0C21.9845 0 0 21.9734 0 48.9985C0 74.5298 19.6279 95.5596 44.5866 97.7963H44.7068C45.1164 97.8316 45.5267 97.8622 45.9383 97.8882L46.1756 97.9024C46.5477 97.9246 46.9259 97.9414 47.3091 97.9525H47.6077C48.0717 97.9525 48.5349 97.9747 49.0042 97.9747C49.4732 97.9747 49.8893 97.9747 50.3307 97.9556H50.5178C50.9068 97.9441 51.2938 97.9284 51.6793 97.9077H51.7574C52.6268 97.8595 53.4908 97.7879 54.349 97.693C78.8578 95.0343 98 74.2113 98 48.9985ZM54.1814 93.0296L53.7094 79.478L65.5436 72.2176C66.9018 73.1485 68.4911 73.6855 70.1356 73.769C71.7801 73.8524 73.4156 73.4792 74.861 72.6905C76.3065 71.9019 77.5055 70.7286 78.3253 69.3006C79.1451 67.8726 79.5537 66.2455 79.5059 64.5996C79.3161 59.8998 75.5492 56.1329 70.8494 55.9435C69.5344 55.8962 68.2255 56.1422 67.0173 56.6636C65.8092 57.1849 64.7322 57.9686 63.8645 58.9577C62.9967 59.9468 62.36 61.1166 62.0003 62.3824C61.6407 63.6481 61.5672 64.9779 61.7852 66.2756L53.433 71.4412L52.827 54.3655L64.474 47.2421C68.5659 50.2977 74.2626 49.9662 77.972 46.4566C81.6819 42.947 82.3284 37.2775 79.504 33.0229C76.68 28.768 71.2039 27.1625 66.5294 29.2185C61.8548 31.2746 59.3375 36.3959 60.5651 41.3529L52.5479 46.3291L52.0732 32.7021C53.9335 31.9827 55.5218 30.6987 56.6151 29.0305C57.7083 27.3622 58.2517 25.3934 58.1687 23.4006C57.9704 18.6361 54.2855 14.749 49.5382 14.2965C44.7914 13.844 40.4388 16.9647 39.3432 21.6059C38.2483 26.2472 40.7466 30.9848 45.1952 32.7021L44.3297 60.9361L35.6035 55.3765C36.1857 52.9973 35.9077 50.4889 34.8187 48.2949C33.0731 44.6646 29.555 42.0902 25.5424 41.8387C23.7386 41.7211 21.9335 42.0473 20.285 42.7888C18.6365 43.5304 17.1948 44.6647 16.0862 46.0924C14.9776 47.5202 14.2358 49.1979 13.9258 50.9787C13.6157 52.7595 13.7468 54.5892 14.3077 56.3076C14.8685 58.026 15.842 59.5808 17.1429 60.8358C18.4437 62.0909 20.0324 63.008 21.7698 63.5069C23.5072 64.0058 25.3404 64.0712 27.109 63.6975C28.8776 63.3238 30.5276 62.5224 31.9147 61.3633L44.0782 69.0594L43.347 92.9763C21.5654 90.1983 4.64888 71.5362 4.64888 48.9989C4.66648 24.5536 24.5536 4.65998 49.0015 4.65998C73.4491 4.65998 93.3366 24.5479 93.3366 48.9954C93.3366 71.6924 76.1942 90.4544 54.1814 93.0292V93.0296Z" fill="#333E48"/>
<path d="M48.7217 18.055C51.9078 18.0581 54.4899 20.6401 54.493 23.8263C54.493 27.0136 51.909 29.5976 48.7217 29.5976C45.534 29.5976 42.95 27.0136 42.95 23.8263C42.95 20.639 45.534 18.055 48.7217 18.055ZM70.4792 59.6437C73.3695 59.6422 75.7165 61.9789 75.7276 64.8691C75.7304 65.9056 75.4257 66.9197 74.8521 67.783C74.2784 68.6463 73.4616 69.3201 72.505 69.7191C71.5483 70.1181 70.4949 70.2244 69.4778 70.0245C68.4607 69.8247 67.5258 69.3276 66.7913 68.5963C66.0567 67.865 65.5556 66.9323 65.3513 65.9161C65.147 64.8999 65.2487 63.846 65.6435 62.8876C66.0383 61.9292 66.7084 61.1094 67.5692 60.532C68.43 59.9546 69.4427 59.6455 70.4792 59.6437ZM73.7086 44.4423C70.6473 45.9302 66.9593 44.6585 65.4651 41.5999C64.9307 40.5033 64.7334 39.2729 64.8983 38.0643C65.0632 36.8556 65.5828 35.723 66.3914 34.8097C67.2001 33.8964 68.2614 33.2434 69.4412 32.9333C70.6209 32.6233 71.8662 32.67 73.0194 33.0677C74.1726 33.4654 75.1819 34.1961 75.9198 35.1675C76.6577 36.1389 77.0909 37.3073 77.1647 38.5249C77.2384 39.7425 76.9495 40.9546 76.3343 42.008C75.7191 43.0614 74.8054 43.9086 73.7086 44.4426V44.4423ZM24.6378 46.1573C28.3098 46.1607 31.2861 49.1367 31.2892 52.8086C31.2876 56.4798 28.3109 59.4546 24.6397 59.4542C20.9686 59.4539 17.9926 56.4779 17.9922 52.8067C17.9918 49.1355 20.9666 46.1592 24.6378 46.1573Z" fill="#009BDE"/>
</svg>
