<svg width="90" height="90" viewBox="0 0 90 90" fill="none" xmlns="http://www.w3.org/2000/svg">
<path d="M67.1464 68.6839L57.7875 78.0429L53.2071 73.4625L62.5661 64.1036L63.4196 63.25H62.2125H53V56.75H74.5V78.25H68V69.0375V67.8304L67.1464 68.6839Z" fill="#00DE81" stroke="#333E48"/>
<path d="M3.25 75.8925V76.2367L3.57149 76.3596C9.00908 78.4378 14.8039 79.4202 20.6225 79.2503C26.4349 79.4776 32.2339 78.537 37.6765 76.4841L38 76.362V76.0163V71.9325V71.1863L37.3099 71.4701C32.0283 73.6415 26.3481 74.6741 20.6402 74.5002L20.625 74.4998L20.6098 74.5002C14.9019 74.6742 9.22162 73.6416 3.94014 71.4701L3.25 71.1863V71.9325V75.8925ZM0.5 52.5C0.5 50.3884 2.10662 48.6355 5.55998 47.3923C8.9954 46.1556 14.0842 45.5 20.625 45.5C27.1658 45.5 32.2546 46.1556 35.69 47.3923C39.1434 48.6355 40.75 50.3884 40.75 52.5V82.5C40.75 83.5157 40.2025 84.4646 39.1208 85.3398C38.0361 86.2176 36.4609 86.9792 34.538 87.6025C30.697 88.8475 25.5959 89.5 20.625 89.5C15.6541 89.5 10.553 88.8475 6.71198 87.6025C4.78913 86.9792 3.21392 86.2176 2.12916 85.3398C1.04746 84.4646 0.5 83.5157 0.5 82.5V52.5ZM38 54.375C38 53.3798 37.3941 52.5112 36.4832 51.7934C35.5666 51.0712 34.2712 50.4426 32.7152 49.9238C29.5978 48.8845 25.3232 48.25 20.625 48.25C15.9268 48.25 11.6522 48.8845 8.53483 49.9238C6.97877 50.4426 5.68343 51.0712 4.76682 51.7934C3.85591 52.5112 3.25 53.3798 3.25 54.375C3.25 55.3702 3.85591 56.2388 4.76682 56.9566C5.68343 57.6788 6.97877 58.3074 8.53483 58.8262C11.6522 59.8655 15.9268 60.5 20.625 60.5C25.3232 60.5 29.5978 59.8655 32.7152 58.8262C34.2712 58.3074 35.5666 57.6788 36.4832 56.9566C37.3941 56.2388 38 55.3702 38 54.375Z" fill="#00DE81" stroke="#333E48"/>
<path d="M52 30.8925V31.2367L52.3215 31.3595C57.7591 33.4378 63.5539 34.4202 69.3725 34.2503C75.1849 34.4776 80.9839 33.537 86.4265 31.4841L86.75 31.362V31.0163V26.9325V26.1863L86.0599 26.4701C80.7784 28.6415 75.0981 29.6741 69.3902 29.5002L69.375 29.4998L69.3598 29.5002C63.6519 29.6742 57.9716 28.6416 52.6901 26.4701L52 26.1863V26.9325V30.8925ZM49.25 7.5C49.25 5.38838 50.8566 3.63553 54.31 2.39232C57.7454 1.15557 62.8342 0.5 69.375 0.5C75.9158 0.5 81.0046 1.15557 84.44 2.39232C87.8934 3.63553 89.5 5.38838 89.5 7.5V37.5C89.5 38.5157 88.9525 39.4646 87.8708 40.3398C86.7861 41.2176 85.2109 41.9792 83.288 42.6025C79.447 43.8475 74.3459 44.5 69.375 44.5C64.4041 44.5 59.303 43.8475 55.462 42.6025C53.5391 41.9792 51.9639 41.2176 50.8792 40.3398C49.7975 39.4646 49.25 38.5157 49.25 37.5V7.5ZM86.75 9.375C86.75 8.37978 86.1441 7.51117 85.2332 6.79343C84.3166 6.07122 83.0212 5.44256 81.4652 4.92379C78.3478 3.88451 74.0732 3.25 69.375 3.25C64.6768 3.25 60.4022 3.88451 57.2848 4.92379C55.7288 5.44256 54.4334 6.07122 53.5168 6.79343C52.6059 7.51117 52 8.37978 52 9.375C52 10.3702 52.6059 11.2388 53.5168 11.9566C54.4334 12.6788 55.7288 13.3074 57.2848 13.8262C60.4022 14.8655 64.6768 15.5 69.375 15.5C74.0732 15.5 78.3478 14.8655 81.4652 13.8262C83.0212 13.3074 84.3166 12.6788 85.2332 11.9566C86.1441 11.2388 86.75 10.3702 86.75 9.375Z" fill="#00DE81" stroke="#333E48"/>
</svg>
