<svg width="98" height="96" viewBox="0 0 98 96" fill="none" xmlns="http://www.w3.org/2000/svg">
<path d="M15.2438 67.6101C14.2054 67.6256 13.4486 67.7759 12.9924 68.1109C12.7443 68.2931 12.5747 68.5382 12.5226 68.8353C12.4728 69.1189 12.5405 69.3898 12.6448 69.6188C12.8485 70.0658 13.2561 70.4952 13.6802 70.8524C14.1142 71.2181 14.6165 71.5502 15.0724 71.7948C15.5211 72.0465 16.016 72.4883 16.524 73.062C17.0289 73.6322 17.5255 74.3083 17.9802 74.9997C18.8898 76.3829 19.6046 77.7861 19.8666 78.4527C20.3825 79.9 21.4857 82.0214 24.0794 83.4758C26.589 84.8831 30.4208 85.6247 36.3117 84.6309C36.3142 86.4723 36.3281 88.2392 36.3419 89.7053C36.3466 90.2027 36.3513 90.6649 36.3555 91.0835C36.3652 92.0339 36.3725 92.7595 36.3725 93.1612C36.3725 93.6946 36.1815 94.2341 35.7754 94.5938C35.3853 94.9393 34.7201 95.1861 33.6259 95.0024C14.3647 88.5652 0.5 70.4471 0.5 49C0.5 22.2036 22.2036 0.5 49 0.5C75.7964 0.5 97.5 22.2036 97.5 48.9999C97.4983 59.1623 94.3093 69.0682 88.382 77.3229C82.4611 85.5687 74.1056 91.7521 64.4899 95.0045C63.3988 95.2157 62.7381 94.9687 62.3501 94.6194C61.9426 94.2527 61.75 93.6969 61.75 93.1612C61.75 92.6101 61.7568 91.6563 61.7659 90.3841C61.7705 89.7526 61.7755 89.0426 61.7806 88.2645C61.7959 85.9211 61.8113 82.9646 61.8113 79.6862C61.8113 75.6215 60.6386 72.7595 59.0867 70.9939C64.246 70.3238 69.5208 68.914 73.5916 65.4995C77.9576 61.8375 80.86 55.9388 80.86 46.4275C80.86 41.0276 78.9949 36.6345 75.9137 33.1521C76.5237 31.4878 77.8961 26.5489 75.3117 20.0881L75.2251 19.8715L75.0035 19.7987L74.8475 20.2738C75.0035 19.7987 75.003 19.7985 75.0025 19.7984L75.0014 19.798L74.9989 19.7972L74.9927 19.7953L74.9758 19.7902C74.9625 19.7863 74.9451 19.7814 74.9236 19.7759C74.8806 19.7648 74.821 19.7511 74.7448 19.7368C74.5922 19.7083 74.373 19.6779 74.0851 19.6634C73.5089 19.6343 72.6602 19.6689 71.5219 19.9068C69.2772 20.3761 65.9106 21.6353 61.2838 24.7526C57.3831 23.6786 53.2517 23.1425 49.1225 23.1425C44.9929 23.1425 40.861 23.6788 36.9599 24.7529C32.3333 21.6654 28.9677 20.4069 26.7247 19.9301C25.5874 19.6884 24.7397 19.6479 24.1644 19.6718C23.877 19.6837 23.6582 19.7116 23.5059 19.7383C23.4298 19.7516 23.3704 19.7646 23.3275 19.7751C23.3061 19.7803 23.2887 19.7849 23.2755 19.7886L23.2587 19.7934L23.2525 19.7952L23.2501 19.796L23.249 19.7963C23.2484 19.7965 23.248 19.7966 23.3975 20.2738L23.248 19.7966L23.0214 19.8676L22.9333 20.0881C20.3489 26.549 21.7214 31.4879 22.3314 33.1521C19.2495 36.6377 17.385 41.0883 17.385 46.4275C17.385 55.9078 20.2718 61.8059 24.6217 65.4756C28.6792 68.8987 33.9415 70.3226 39.1018 70.9943C37.9525 72.3088 36.9958 74.2402 36.6006 76.8304C35.2027 77.4356 32.958 78.1376 30.5636 77.9174C28.055 77.6867 25.336 76.4419 23.2147 72.8768L23.2148 72.8768L23.209 72.8675C22.7324 72.105 21.7814 70.7881 20.4421 69.664C19.1039 68.5409 17.3369 67.577 15.2438 67.6101ZM15.2438 67.6101L15.2513 68.11M15.2438 67.6101C15.2436 67.6101 15.2435 67.6101 15.2433 67.6101L15.2513 68.11M15.2513 68.11C11.1475 68.1712 13.5975 70.4375 15.3125 71.3562L37.0563 77.175C34.2388 78.4613 27.195 80.5437 22.785 73.1325C21.8662 71.6625 19.11 68.0488 15.2513 68.11Z" fill="#333E48" stroke="black"/>
</svg>
