<svg width="70" height="95" viewBox="0 0 70 95" fill="none" xmlns="http://www.w3.org/2000/svg">
<g clip-path="url(#clip0_4_100)">
<path d="M22.5734 73.1371C22.5734 73.1371 18.9645 75.2358 25.1418 75.9459C32.6255 76.7996 36.45 76.6773 44.6972 75.1163C44.6972 75.1163 46.8655 76.4758 49.8933 77.6535C31.4059 85.5769 8.05219 77.1944 22.5734 73.1371Z" fill="#5382A1"/>
<path d="M20.3142 62.7974C20.3142 62.7974 16.2665 65.7937 22.4484 66.433C30.4426 67.2577 36.7557 67.3252 47.6801 65.2217C47.6801 65.2217 49.1911 66.7535 51.567 67.5913C29.2143 74.1275 4.31757 68.1067 20.3142 62.7974Z" fill="#5382A1"/>
<path d="M39.3592 45.258C43.9146 50.5026 38.1623 55.2221 38.1623 55.2221C38.1623 55.2221 49.729 49.251 44.4169 41.7736C39.4557 34.801 35.6508 31.336 56.248 19.3906C56.248 19.3906 23.9173 27.4652 39.3592 45.2578" fill="#E76F00"/>
<path d="M63.8105 80.7849C63.8105 80.7849 66.4811 82.9853 60.8691 84.6877C50.1979 87.9205 16.4541 88.8967 7.08012 84.8165C3.71055 83.3509 10.0297 81.3165 12.0173 80.8894C14.0902 80.4398 15.275 80.5238 15.275 80.5238C11.5276 77.8837 -8.94687 85.7073 4.87512 87.9476C42.5693 94.0606 73.5878 85.1952 63.8105 80.7849Z" fill="#5382A1"/>
<path d="M24.3086 52.0843C24.3086 52.0843 7.14464 56.1613 18.2306 57.6414C22.9113 58.2681 32.2424 58.1265 40.9341 57.398C48.0375 56.7992 55.1701 55.525 55.1701 55.525C55.1701 55.525 52.6654 56.5977 50.8533 57.835C33.4233 62.4192 -0.248285 60.2866 9.44535 55.5975C17.6433 51.6348 24.3089 52.0843 24.3089 52.0843" fill="#5382A1"/>
<path d="M55.0993 69.2951C72.8181 60.0879 64.6256 51.24 58.9075 52.4322C57.5058 52.7237 56.881 52.9763 56.881 52.9763C56.881 52.9763 57.4014 52.1615 58.395 51.8088C69.7072 47.8316 78.4071 63.5384 54.7433 69.7591C54.7433 69.7594 55.0175 69.5144 55.0993 69.2951Z" fill="#5382A1"/>
<path d="M44.4169 0.10147C44.4169 0.10147 54.2298 9.91788 35.1099 25.0119C19.778 37.1203 31.6138 44.024 35.1036 51.9119C26.154 43.8373 19.5861 36.729 23.9925 30.1134C30.4596 20.4017 48.376 15.6934 44.4169 0.101196" fill="#E76F00"/>
<path d="M26.0499 94.2443C43.0574 95.3332 69.1742 93.6403 69.7927 85.5928C69.7927 85.5928 68.6038 88.6438 55.737 91.0664C41.2207 93.7981 23.3171 93.4793 12.6982 91.7284C12.6985 91.7284 14.872 93.5277 26.0501 94.2443" fill="#5382A1"/>
</g>
<defs>
<clipPath id="clip0_4_100">
<rect width="70" height="94.6094" fill="white"/>
</clipPath>
</defs>
</svg>
