<svg width="70" height="70" viewBox="0 0 70 70" fill="none" xmlns="http://www.w3.org/2000/svg">
<path d="M4.375 4.375H65.625V65.625H4.375V4.375Z" fill="#F5DE19"/>
<path d="M45.5197 52.2266C46.0415 53.2866 46.8523 54.1776 47.8586 54.7969C48.8649 55.4161 50.0257 55.7384 51.2072 55.7266C53.5915 55.7266 55.1162 54.5344 55.1162 52.8828C55.1162 50.9141 53.55 50.2097 50.925 49.0613L49.4856 48.4444C45.3293 46.6747 42.5731 44.4588 42.5731 39.7731C42.5731 35.4572 45.8543 32.1694 51.0015 32.1694C52.6678 32.0491 54.3325 32.422 55.7882 33.2416C57.2439 34.0613 58.426 35.2913 59.1872 36.7784L54.6875 39.655C54.3944 38.9176 53.8841 38.2868 53.2242 37.8461C52.5644 37.4054 51.7862 37.1757 50.9928 37.1875C50.6466 37.1528 50.2971 37.1907 49.9663 37.2986C49.6356 37.4065 49.331 37.5821 49.0719 37.8143C48.8128 38.0464 48.6049 38.33 48.4615 38.6469C48.318 38.9638 48.2422 39.3071 48.2387 39.655C48.2387 41.3809 49.3084 42.0809 51.7781 43.155L53.2175 43.7719C58.1087 45.8697 60.8737 48.0069 60.8737 52.8128C60.8737 57.995 56.8028 60.8344 51.3362 60.8344C49.2063 60.9701 47.0825 60.4865 45.2213 59.442C43.3601 58.3974 41.8409 56.8366 40.8472 54.9478L45.5197 52.2266ZM25.1868 52.7253C26.0903 54.3288 26.9128 55.685 28.8903 55.685C30.7803 55.685 31.9747 54.9456 31.9747 52.0691V32.4975H37.73V52.1456C37.73 58.1044 34.23 60.8169 29.1353 60.8169C27.3344 60.9153 25.5459 60.4665 24.0049 59.5295C22.4639 58.5925 21.2425 57.2111 20.5012 55.5669L25.1868 52.7253Z" fill="black"/>
</svg>
