<svg width="50" height="50" viewBox="0 0 50 50" fill="none" xmlns="http://www.w3.org/2000/svg">
<path d="M18.75 0.869164C19.055 1.23983 19.2419 1.69345 19.2865 2.17142C19.3311 2.64939 19.2313 3.12975 19 3.55041C17.1933 6.86752 16.2498 10.5857 16.2563 14.3629C16.2563 26.9285 26.5 37.1035 39.125 37.1035C40.7719 37.1035 42.375 36.9317 43.9156 36.6035C44.3879 36.5013 44.8798 36.5404 45.33 36.716C45.7802 36.8916 46.1686 37.196 46.4469 37.591C46.7406 38.0018 46.8903 38.4981 46.8728 39.0028C46.8553 39.5075 46.6715 39.9922 46.35 40.3817C43.899 43.3924 40.807 45.8182 37.2995 47.4822C33.7919 49.1463 29.9572 50.0066 26.075 50.0004C11.6687 50.0004 0 38.3942 0 24.0942C0 13.3317 6.60625 4.10041 16.0125 0.187914C16.4811 -0.0101114 17.0012 -0.0507553 17.4948 0.0720879C17.9885 0.194931 18.4289 0.474628 18.75 0.869164Z" fill="black" fill-opacity="0.8"/>
<path d="M33.7312 9.83749C33.776 9.70216 33.8624 9.5844 33.9779 9.50093C34.0935 9.41746 34.2324 9.37253 34.375 9.37253C34.5175 9.37253 34.6565 9.41746 34.772 9.50093C34.8876 9.5844 34.9739 9.70216 35.0187 9.83749L36.2281 13.4687C36.7687 15.0875 38.0375 16.3562 39.6562 16.8969L43.2875 18.1062C43.4228 18.1511 43.5406 18.2374 43.6241 18.3529C43.7075 18.4685 43.7524 18.6074 43.7524 18.75C43.7524 18.8925 43.7075 19.0315 43.6241 19.147C43.5406 19.2626 43.4228 19.3489 43.2875 19.3937L39.6562 20.6031C38.8579 20.8691 38.1324 21.3174 37.5374 21.9124C36.9424 22.5074 36.4941 23.2329 36.2281 24.0312L35.0187 27.6625C34.9739 27.7978 34.8876 27.9156 34.772 27.9991C34.6565 28.0825 34.5175 28.1275 34.375 28.1275C34.2324 28.1275 34.0935 28.0825 33.9779 27.9991C33.8624 27.9156 33.776 27.7978 33.7312 27.6625L32.5219 24.0312C32.2559 23.2329 31.8076 22.5074 31.2126 21.9124C30.6175 21.3174 29.8921 20.8691 29.0937 20.6031L25.4625 19.3937C25.3272 19.3489 25.2094 19.2626 25.1259 19.147C25.0425 19.0315 24.9975 18.8925 24.9975 18.75C24.9975 18.6074 25.0425 18.4685 25.1259 18.3529C25.2094 18.2374 25.3272 18.1511 25.4625 18.1062L29.0937 16.8969C29.8921 16.6309 30.6175 16.1826 31.2126 15.5876C31.8076 14.9925 32.2559 14.2671 32.5219 13.4687L33.7312 9.83749ZM43.3219 0.309365C43.3527 0.220385 43.4105 0.143227 43.4872 0.0886199C43.564 0.0340127 43.6558 0.00466919 43.75 0.00466919C43.8442 0.00466919 43.936 0.0340127 44.0127 0.0886199C44.0895 0.143227 44.1473 0.220385 44.1781 0.309365L44.9844 2.72812C45.3437 3.80937 46.1906 4.65624 47.2719 5.01562L49.6906 5.82187C49.7796 5.85272 49.8568 5.91052 49.9114 5.98725C49.966 6.06398 49.9953 6.15581 49.9953 6.24999C49.9953 6.34417 49.966 6.436 49.9114 6.51273C49.8568 6.58946 49.7796 6.64727 49.6906 6.67812L47.2719 7.48437C46.739 7.66163 46.2548 7.96067 45.8577 8.35775C45.4607 8.75483 45.1616 9.23902 44.9844 9.77187L44.1781 12.1906C44.1473 12.2796 44.0895 12.3568 44.0127 12.4114C43.936 12.466 43.8442 12.4953 43.75 12.4953C43.6558 12.4953 43.564 12.466 43.4872 12.4114C43.4105 12.3568 43.3527 12.2796 43.3219 12.1906L42.5156 9.77187C42.3384 9.23902 42.0393 8.75483 41.6422 8.35775C41.2451 7.96067 40.761 7.66163 40.2281 7.48437L37.8094 6.67812C37.7204 6.64727 37.6432 6.58946 37.5886 6.51273C37.534 6.436 37.5047 6.34417 37.5047 6.24999C37.5047 6.15581 37.534 6.06398 37.5886 5.98725C37.6432 5.91052 37.7204 5.85272 37.8094 5.82187L40.2281 5.01562C41.3094 4.65624 42.1562 3.80937 42.5156 2.72812L43.3219 0.31249V0.309365Z" fill="black" fill-opacity="0.8"/>
</svg>
