<svg width="90" height="90" viewBox="0 0 90 90" fill="none" xmlns="http://www.w3.org/2000/svg">
<path d="M61.5188 20.6288C61.0875 20.6288 60.795 20.6813 60.4913 20.7525V20.8013H60.5438C60.7463 21.1913 61.0912 21.4763 61.3462 21.825C61.5487 22.2263 61.7213 22.6275 61.9238 23.025L61.9762 22.9688C62.3288 22.7213 62.5013 22.3238 62.5013 21.72C62.3512 21.5438 62.3288 21.3675 62.2012 21.195C62.0513 20.9438 61.7287 20.82 61.5262 20.6213L61.5188 20.6288ZM21.6375 70.1063H18.1612C18.0635 64.5817 17.7257 59.064 17.1488 53.5688H17.1187L11.8313 70.1063H9.1875L3.9375 53.5688H3.9C3.48935 59.0726 3.24549 64.5877 3.16875 70.1063H0C0.20625 62.7338 0.72 55.8188 1.5375 49.3688H5.85L10.8562 64.6088H10.8863L15.9375 49.3688H20.0437C20.9513 56.925 21.4837 63.8438 21.6487 70.1063H21.6375ZM36.7012 54.8063C35.2837 62.475 33.4163 68.055 31.1063 71.5313C29.2987 74.2163 27.3188 75.555 25.17 75.555C24.5963 75.555 23.895 75.3825 23.0475 75.0375V73.185C23.46 73.2488 23.9475 73.2825 24.495 73.2825C25.5 73.2825 26.3062 73.0013 26.9212 72.45C27.66 71.775 28.0275 71.0175 28.0275 70.1813C28.0275 69.6 27.7388 68.4188 27.165 66.6413L23.3625 54.8063H26.775L29.5013 63.6563C30.1163 65.6663 30.375 67.0688 30.27 67.8675C31.77 63.8775 32.8125 59.5163 33.4012 54.8063H36.7012ZM82.92 70.1063H73.0575V49.3688H76.3763V67.5563H82.92V70.1063ZM70.47 70.6125L66.66 68.7375C66.9975 68.4525 67.3238 68.145 67.6162 67.8C69.24 65.9025 70.0462 63.0825 70.0462 59.3513C70.0462 52.4888 67.3538 49.0538 61.965 49.0538C59.325 49.0538 57.2625 49.9238 55.7775 51.6675C54.165 53.5725 53.355 56.3775 53.355 60.0863C53.355 63.7313 54.0675 66.4088 55.5075 68.1113C56.82 69.6488 58.7962 70.4175 61.4438 70.4175C62.4338 70.4175 63.3413 70.2938 64.1625 70.05L69.1312 72.945L70.4812 70.6125H70.47ZM58.125 65.955C57.2812 64.605 56.8613 62.43 56.8613 59.445C56.8613 54.2213 58.4513 51.6075 61.6238 51.6075C63.285 51.6075 64.5112 52.2338 65.2875 53.4825C66.1275 54.84 66.5475 56.9925 66.5475 59.9438C66.5475 65.2088 64.9575 67.8488 61.785 67.8488C60.1162 67.8488 58.8975 67.2225 58.1175 65.9738L58.125 65.955ZM51.9075 64.3613C51.9075 66.1238 51.2625 67.5713 49.9725 68.6963C48.6825 69.8213 46.9613 70.3838 44.7825 70.3838C42.7463 70.3838 40.7925 69.7388 38.8838 68.4525L39.7725 66.6675C41.415 67.4925 42.8962 67.8975 44.235 67.8975C45.48 67.8975 46.4588 67.6238 47.1713 67.0725C47.5274 66.8041 47.8149 66.4552 48.0104 66.0544C48.206 65.6535 48.3039 65.2122 48.2962 64.7663C48.2962 63.5288 47.4338 62.4788 45.8662 61.5975C44.4113 60.7988 41.505 59.1338 41.505 59.1338C39.9225 57.9825 39.135 56.7488 39.135 54.72C39.135 53.0325 39.7238 51.6825 40.8975 50.6513C42.0788 49.6088 43.5975 49.095 45.4725 49.095C47.3925 49.095 49.1475 49.605 50.7225 50.6325L49.9237 52.4175C48.6653 51.8647 47.3082 51.5713 45.9338 51.555C44.8725 51.555 44.0513 51.81 43.4813 52.3275C43.192 52.5671 42.9588 52.8673 42.7981 53.2068C42.6374 53.5463 42.5532 53.9169 42.5513 54.2925C42.5513 55.5225 43.4287 56.58 45.0487 57.48C46.5225 58.2863 49.5 59.9925 49.5 59.9925C51.1237 61.1363 51.93 62.355 51.93 64.3725L51.9075 64.3613ZM87.09 42.4163C85.0838 42.3638 83.5275 42.5663 82.2262 43.1213C81.8512 43.2713 81.2513 43.2713 81.1987 43.7475C81.405 43.9463 81.435 44.2725 81.6113 44.55C81.9113 45.0525 82.4287 45.7238 82.9087 46.0763C83.4337 46.4888 83.9587 46.8863 84.51 47.2388C85.485 47.8388 86.5913 48.195 87.5475 48.7988C88.0913 49.1513 88.6462 49.5975 89.1975 49.9725C89.4712 50.16 89.6475 50.4975 90 50.6175V50.5425C89.8275 50.3175 89.775 49.9913 89.6063 49.74C89.355 49.4888 89.1038 49.2638 88.8562 49.0163C88.12 48.046 87.2413 47.1926 86.25 46.485C85.4475 45.9375 83.6925 45.1725 83.3625 44.2538L83.3137 44.2013C83.8612 44.1525 84.5137 43.9538 85.0387 43.8038C85.89 43.5788 86.67 43.6275 87.5513 43.4063C87.9488 43.305 88.35 43.1813 88.7513 43.0538V42.8288C88.3012 42.3788 87.9638 41.7675 87.4987 41.3475C86.2008 40.213 84.8167 39.1812 83.3587 38.2613C82.5713 37.7588 81.5737 37.4363 80.745 37.0088C80.445 36.8588 79.9425 36.7838 79.77 36.5325C79.32 35.985 79.0575 35.2575 78.7387 34.605C78.0024 33.1766 77.3182 31.7219 76.6875 30.2438C76.2375 29.2613 75.9638 28.2825 75.4125 27.3825C72.825 23.1188 70.0238 20.535 65.715 18.0075C64.7887 17.4825 63.6787 17.2575 62.505 16.98C61.8787 16.95 61.2525 16.905 60.63 16.8788C60.2175 16.7025 59.82 16.2263 59.4675 15.9975C58.0425 15.0975 54.3525 13.1475 53.3025 15.7275C52.6275 17.355 54.3037 18.96 54.885 19.785C55.3162 20.3588 55.86 21.015 56.16 21.66C56.3363 22.095 56.385 22.5413 56.5612 22.995C56.9588 24.0975 57.3375 25.3275 57.8625 26.3588C58.1362 26.8838 58.4362 27.435 58.7887 27.9075C58.9912 28.1813 59.3363 28.3088 59.415 28.7588C59.0625 29.2688 59.04 30.0113 58.8375 30.6338C57.9375 33.4725 58.29 36.9825 59.565 39.0713C59.9662 39.6938 60.9225 41.0738 62.2012 40.545C63.3262 40.095 63.0787 38.67 63.4012 37.4138C63.4762 37.1138 63.4275 36.915 63.5812 36.7125V36.7688C63.9338 37.4738 64.2862 38.145 64.6087 38.85C65.3812 40.08 66.7313 41.355 67.86 42.2063C68.46 42.6563 68.9362 43.4363 69.6862 43.7138V43.6388H69.63C69.4688 43.4213 69.255 43.3163 69.0525 43.14C68.577 42.6746 68.1382 42.1731 67.74 41.64C66.6834 40.1963 65.7466 38.6688 64.9388 37.0725C64.5262 36.285 64.1813 35.4375 63.8512 34.6613C63.7013 34.3613 63.7013 33.9113 63.45 33.7613C63.075 34.3088 62.5238 34.785 62.25 35.46C61.7738 36.54 61.725 37.8675 61.545 39.2475C61.4438 39.2738 61.4925 39.2475 61.4438 39.3C60.6413 39.105 60.3675 38.2725 60.0675 37.575C59.3175 35.7938 59.1938 32.9325 59.8425 30.8813C60.0187 30.3563 60.7687 28.6988 60.4688 28.1963C60.3112 27.72 59.8162 27.4463 59.5425 27.06C59.1904 26.5573 58.8889 26.0209 58.6425 25.4588C58.0425 24.0563 57.7425 22.5038 57.09 21.1013C56.79 20.4525 56.265 19.7738 55.8375 19.1775C55.3613 18.5025 54.8363 18.0263 54.4575 17.2275C54.3338 16.9538 54.1575 16.5 54.3563 16.2C54.4087 15.9975 54.5137 15.9188 54.7087 15.8625C55.0387 15.5925 55.965 15.945 56.2912 16.095C57.2175 16.47 57.9975 16.8225 58.7738 17.3475C59.1263 17.595 59.505 18.0713 59.955 18.195H60.48C61.2825 18.3713 62.1863 18.2475 62.9363 18.4688C64.2675 18.8963 65.4675 19.5188 66.5438 20.1938C69.86 22.3122 72.5574 25.2696 74.3625 28.7663C74.6625 29.3438 74.7937 29.8725 75.0675 30.4725C75.5925 31.71 76.2412 32.9588 76.7738 34.155C77.2988 35.3363 77.805 36.54 78.5587 37.5188C78.9337 38.0438 80.4413 38.3175 81.1162 38.5913C81.615 38.8163 82.3913 39.0225 82.8412 39.2963C83.7038 39.8213 84.5437 40.4213 85.3538 40.9988C85.7663 41.2838 87.015 41.91 87.09 42.4163Z" fill="#009BDE"/>
</svg>
