<svg width="90" height="90" viewBox="0 0 90 90" fill="none" xmlns="http://www.w3.org/2000/svg">
<path d="M67.5 59.0625V25.3125H61.875V64.6875H84.375V59.0625H67.5Z" fill="#009BDE"/>
<path d="M50.625 25.3125H39.375C37.8832 25.3125 36.4524 25.9051 35.3975 26.96C34.3426 28.0149 33.75 29.4457 33.75 30.9375V59.0625C33.75 60.5543 34.3426 61.9851 35.3975 63.04C36.4524 64.0949 37.8832 64.6875 39.375 64.6875H42.1875V70.3125C42.1875 71.8043 42.7801 73.2351 43.835 74.29C44.8899 75.3449 46.3207 75.9375 47.8125 75.9375H53.4375V70.3125H47.8125V64.6875H50.625C52.1168 64.6875 53.5476 64.0949 54.6025 63.04C55.6574 61.9851 56.25 60.5543 56.25 59.0625V30.9375C56.25 29.4457 55.6574 28.0149 54.6025 26.96C53.5476 25.9051 52.1168 25.3125 50.625 25.3125ZM39.375 59.0625V30.9375H50.625V59.0625H39.375Z" fill="#009BDE"/>
<path d="M22.5 64.6875H5.625V59.0625H22.5V47.8125H11.25C9.75816 47.8125 8.32742 47.2199 7.27252 46.165C6.21763 45.1101 5.625 43.6793 5.625 42.1875V30.9375C5.625 29.4457 6.21763 28.0149 7.27252 26.96C8.32742 25.9051 9.75816 25.3125 11.25 25.3125H28.125V30.9375H11.25V42.1875H22.5C23.9918 42.1875 25.4226 42.7801 26.4775 43.835C27.5324 44.8899 28.125 46.3207 28.125 47.8125V59.0625C28.125 60.5543 27.5324 61.9851 26.4775 63.04C25.4226 64.0949 23.9918 64.6875 22.5 64.6875Z" fill="#009BDE"/>
</svg>
