<svg width="42" height="42" viewBox="0 0 42 42" fill="none" xmlns="http://www.w3.org/2000/svg">
<path d="M34.5417 34.5416L37.6667 37.6666M21 2.24996V0.166626V2.24996ZM21 41.8333V39.75V41.8333ZM39.75 21H41.8333H39.75ZM0.166656 21H2.24999H0.166656ZM34.5417 7.45829L37.6667 4.33329L34.5417 7.45829ZM4.33332 37.6666L7.45832 34.5416L4.33332 37.6666ZM4.33332 4.33329L7.45832 7.45829L4.33332 4.33329Z" stroke="#EEEEEE" stroke-width="2" stroke-linecap="round"/>
<path d="M21 29.3333C25.6024 29.3333 29.3333 25.6023 29.3333 21C29.3333 16.3976 25.6024 12.6666 21 12.6666C16.3976 12.6666 12.6667 16.3976 12.6667 21C12.6667 25.6023 16.3976 29.3333 21 29.3333Z" stroke="#EEEEEE" stroke-width="2" stroke-linecap="round"/>
</svg>
