<svg width="90" height="90" viewBox="0 0 90 90" fill="none" xmlns="http://www.w3.org/2000/svg">
<path d="M80.685 5.625H9.315C7.27707 5.625 5.625 7.27707 5.625 9.315V80.685C5.625 82.7229 7.27707 84.375 9.315 84.375H80.685C82.7229 84.375 84.375 82.7229 84.375 80.685V9.315C84.375 7.27707 82.7229 5.625 80.685 5.625Z" fill="#3178C6"/>
<path fill-rule="evenodd" clip-rule="evenodd" d="M51.3141 66.8222V75.4509C52.8819 76.2248 54.5527 76.7694 56.2753 77.0681C58.266 77.4356 60.2866 77.6164 62.3109 77.6081C64.2839 77.6175 66.2523 77.4186 68.1834 77.0147C69.9173 76.6643 71.5716 75.9969 73.0631 75.0459C74.4478 74.1521 75.5891 72.9287 76.3847 71.4853C77.8096 68.4965 77.9975 65.0663 76.9078 61.9397C76.448 60.7705 75.7628 59.7031 74.8913 58.7981C73.9558 57.8359 72.8931 57.006 71.7328 56.3316C70.397 55.5492 69.0091 54.8594 67.5788 54.2672C66.4538 53.8003 65.4413 53.3466 64.5413 52.9059C63.7419 52.5232 62.9769 52.0725 62.2547 51.5588C61.6891 51.1622 61.1978 50.669 60.8034 50.1019C60.4627 49.5869 60.2853 48.9811 60.2944 48.3638C60.2869 47.7955 60.4452 47.2374 60.75 46.7578C61.081 46.2559 61.5226 45.8364 62.0409 45.5316C62.6745 45.1585 63.3639 44.8898 64.0828 44.7356C64.9654 44.5396 65.8675 44.4452 66.7716 44.4544C67.5319 44.457 68.2912 44.5115 69.0441 44.6175C69.8571 44.7274 70.6616 44.8938 71.4516 45.1153C72.2551 45.338 73.041 45.6201 73.8028 45.9591C74.542 46.2886 75.2491 46.6859 75.915 47.1459V39.0938C74.5288 38.5693 73.0911 38.1922 71.6259 37.9688C69.8566 37.7113 68.0701 37.59 66.2822 37.6059C64.3278 37.5954 62.3792 37.8173 60.4772 38.2669C58.758 38.6597 57.1234 39.358 55.6509 40.3284C54.2832 41.2396 53.1538 42.4654 52.3575 43.9031C51.5137 45.4997 51.0961 47.287 51.1453 49.0922C51.083 51.4794 51.8693 53.8114 53.3644 55.6734C55.1987 57.7381 57.5116 59.3209 60.1003 60.2831C61.2816 60.7706 62.3831 61.2478 63.405 61.7147C64.327 62.1249 65.2132 62.6113 66.0544 63.1688C66.7329 63.6101 67.3288 64.167 67.815 64.8141C68.2426 65.401 68.4694 66.1102 68.4619 66.8363C68.4658 67.3804 68.3261 67.9159 68.0569 68.3888C67.7578 68.8969 67.3375 69.323 66.8334 69.6291C66.2028 70.0136 65.5128 70.2911 64.7916 70.4503C63.852 70.6604 62.8911 70.7595 61.9284 70.7456C60.0393 70.7422 58.1652 70.4091 56.3906 69.7613C54.5367 69.0922 52.8174 68.0969 51.3141 66.8222ZM36.8184 45.3403H48.0684V38.2331H16.7006V45.3403H27.9V76.9922H36.8184V45.3403Z" fill="white"/>
</svg>
